<svg width="183" height="464" viewBox="0 0 183 464" fill="none" xmlns="http://www.w3.org/2000/svg">
<g clip-path="url(#clip0_156_428)">
<path d="M161.535 449.997C162.138 448.282 162.289 446.442 161.974 444.652C161.659 442.863 160.887 441.185 159.735 439.779C156.73 436.201 151.781 435.078 147.197 434.166L133.638 431.466L137.532 437.119C140.333 441.185 143.223 445.342 147.28 448.157C151.336 450.971 156.874 452.199 161.263 449.938" fill="#E6E6E6"/>
<path d="M178.895 449.124C173.709 449.835 168.455 450.567 163.214 450.067C158.558 449.624 154.012 448.204 150.283 445.314C148.308 443.78 146.615 441.913 145.282 439.797C144.934 439.246 145.808 438.738 146.155 439.287C148.469 442.948 151.887 445.779 155.914 447.373C160.393 449.133 165.276 449.416 170.034 449.113C172.912 448.929 175.77 448.54 178.625 448.149C178.754 448.118 178.891 448.137 179.006 448.203C179.121 448.268 179.208 448.375 179.247 448.502C179.282 448.631 179.264 448.769 179.198 448.885C179.132 449.002 179.023 449.087 178.894 449.123L178.895 449.124Z" fill="#F2F2F2"/>
<path d="M170.573 444.002C171.691 443.267 172.601 442.256 173.215 441.068C173.829 439.879 174.126 438.552 174.078 437.216C173.915 433.779 171.517 430.915 169.239 428.338L162.503 420.712L162.262 425.759C162.088 429.388 161.924 433.111 163.045 436.568C164.166 440.025 166.86 443.213 170.44 443.846" fill="#E6E6E6"/>
<path d="M181.876 451.135C175.812 447.71 169.073 443.736 166.919 436.636C166.322 434.662 166.108 432.593 166.289 430.538C166.345 429.891 167.343 430.053 167.287 430.699C167.001 434.142 167.911 437.579 169.863 440.431C171.809 443.111 174.262 445.384 177.084 447.12C178.772 448.227 180.531 449.22 182.288 450.212C182.849 450.529 182.444 451.456 181.876 451.135Z" fill="#F2F2F2"/>
<path d="M153.609 136.645C154.439 134.284 154.647 131.75 154.213 129.285C153.779 126.821 152.717 124.51 151.13 122.575C146.992 117.647 140.176 116.102 133.864 114.845L115.193 111.126L120.555 118.911C124.412 124.51 128.392 130.235 133.978 134.111C139.564 137.987 147.19 139.678 153.234 136.565" fill="#E6E6E6"/>
<path d="M177.514 135.443C170.372 136.423 163.138 137.431 155.92 136.742C149.509 136.131 143.249 134.176 138.114 130.196C135.394 128.083 133.063 125.513 131.227 122.599C130.748 121.84 131.952 121.141 132.429 121.897C135.616 126.938 140.322 130.837 145.869 133.032C152.037 135.456 158.761 135.845 165.313 135.427C169.275 135.175 173.211 134.639 177.143 134.1C177.321 134.057 177.508 134.084 177.667 134.174C177.826 134.265 177.945 134.412 177.999 134.586C178.047 134.764 178.023 134.954 177.932 135.114C177.841 135.274 177.69 135.392 177.513 135.442L177.514 135.443Z" fill="#F2F2F2"/>
<path d="M166.054 128.39C167.594 127.378 168.847 125.986 169.693 124.349C170.538 122.712 170.947 120.885 170.881 119.044C170.657 114.312 167.354 110.369 164.217 106.819L154.942 96.3176L154.609 103.267C154.369 108.265 154.145 113.393 155.688 118.153C157.232 122.914 160.942 127.304 165.871 128.174" fill="#E6E6E6"/>
<path d="M181.619 138.212C173.269 133.495 163.989 128.024 161.022 118.247C160.2 115.528 159.906 112.678 160.155 109.849C160.232 108.958 161.607 109.18 161.53 110.07C161.136 114.812 162.389 119.545 165.077 123.472C167.65 127.25 171.228 130.193 175.021 132.683C177.345 134.208 179.767 135.574 182.186 136.941C182.96 137.377 182.401 138.654 181.619 138.212Z" fill="#F2F2F2"/>
<path d="M27.9655 180.858C27.7487 181.356 27.3565 181.756 26.8636 181.983C26.3706 182.211 25.8113 182.249 25.2921 182.09C25.2125 182.065 25.1301 182.049 25.0468 182.042C24.8089 182.028 24.5727 182.09 24.3731 182.22C24.1735 182.351 24.0212 182.542 23.9387 182.765C23.8562 182.989 23.848 183.233 23.9151 183.461C23.9823 183.69 24.1213 183.891 24.3116 184.034C24.3791 184.084 24.4523 184.125 24.5294 184.157C25.0271 184.374 25.4277 184.766 25.655 185.258C25.8823 185.751 25.9203 186.31 25.762 186.829C25.7363 186.909 25.7202 186.991 25.7139 187.074C25.6994 187.312 25.7619 187.548 25.8922 187.748C26.0225 187.947 26.2135 188.1 26.4371 188.182C26.6607 188.264 26.9049 188.273 27.1336 188.206C27.3623 188.138 27.5632 187.999 27.7067 187.809C27.756 187.742 27.7972 187.669 27.8294 187.592C28.0462 187.094 28.4383 186.694 28.9313 186.466C29.4243 186.239 29.9836 186.201 30.5028 186.359C30.5824 186.385 30.6647 186.401 30.7481 186.408C30.986 186.422 31.2222 186.36 31.4218 186.229C31.6213 186.099 31.7736 185.908 31.8561 185.685C31.9386 185.461 31.9469 185.217 31.8797 184.988C31.8125 184.76 31.6735 184.559 31.4832 184.416C31.4157 184.366 31.3426 184.325 31.2654 184.293C30.7677 184.076 30.3671 183.684 30.1399 183.191C29.9126 182.699 29.8745 182.14 30.0329 181.621C30.0585 181.541 30.0746 181.459 30.081 181.375C30.0955 181.138 30.033 180.901 29.9027 180.702C29.7724 180.503 29.5813 180.35 29.3577 180.268C29.1341 180.185 28.8899 180.177 28.6613 180.244C28.4326 180.311 28.2316 180.45 28.0882 180.641C28.0388 180.708 27.9977 180.781 27.9655 180.858Z" fill="#CBCBCB"/>
<path d="M126.087 138.737C125.87 139.235 125.478 139.635 124.985 139.863C124.492 140.09 123.933 140.128 123.414 139.969C123.334 139.944 123.252 139.928 123.168 139.921C122.931 139.907 122.694 139.969 122.495 140.1C122.295 140.23 122.143 140.421 122.06 140.644C121.978 140.868 121.97 141.112 122.037 141.341C122.104 141.569 122.243 141.77 122.433 141.913C122.501 141.963 122.574 142.004 122.651 142.036C123.149 142.253 123.549 142.645 123.777 143.137C124.004 143.63 124.042 144.189 123.884 144.708C123.858 144.788 123.842 144.87 123.836 144.954C123.821 145.191 123.884 145.427 124.014 145.627C124.144 145.826 124.335 145.979 124.559 146.061C124.782 146.144 125.027 146.152 125.255 146.085C125.484 146.018 125.685 145.879 125.828 145.688C125.878 145.621 125.919 145.548 125.951 145.471C126.168 144.973 126.56 144.573 127.053 144.346C127.546 144.118 128.105 144.08 128.625 144.239C128.704 144.264 128.786 144.28 128.87 144.287C129.108 144.301 129.344 144.239 129.544 144.108C129.743 143.978 129.895 143.787 129.978 143.564C130.06 143.34 130.069 143.096 130.001 142.868C129.934 142.639 129.795 142.438 129.605 142.295C129.537 142.245 129.464 142.204 129.387 142.172C128.889 141.955 128.489 141.563 128.262 141.071C128.034 140.578 127.996 140.019 128.155 139.5C128.18 139.42 128.196 139.338 128.203 139.255C128.217 139.017 128.155 138.781 128.024 138.581C127.894 138.382 127.703 138.229 127.479 138.147C127.256 138.065 127.012 138.056 126.783 138.123C126.554 138.191 126.353 138.329 126.21 138.52C126.161 138.587 126.119 138.66 126.087 138.737Z" fill="#F1F1F1"/>
<path d="M68.8997 359.571C68.6829 360.068 68.2907 360.469 67.7978 360.696C67.3048 360.923 66.7455 360.961 66.2263 360.803C66.1467 360.777 66.0643 360.761 65.981 360.755C65.7431 360.74 65.5069 360.803 65.3073 360.933C65.1077 361.063 64.9554 361.254 64.8729 361.478C64.7904 361.701 64.7822 361.945 64.8493 362.174C64.9165 362.403 65.0555 362.603 65.2458 362.747C65.3134 362.796 65.3865 362.837 65.4636 362.87C65.9613 363.086 66.3619 363.478 66.5892 363.971C66.8165 364.464 66.8545 365.023 66.6962 365.542C66.6705 365.621 66.6544 365.704 66.6481 365.787C66.6336 366.025 66.6961 366.261 66.8264 366.46C66.9567 366.66 67.1477 366.812 67.3713 366.895C67.5949 366.977 67.8391 366.985 68.0678 366.918C68.2965 366.851 68.4974 366.712 68.6409 366.522C68.6902 366.454 68.7314 366.381 68.7636 366.304C68.9804 365.807 69.3725 365.406 69.8655 365.179C70.3585 364.952 70.9178 364.914 71.437 365.072C71.5166 365.098 71.5989 365.114 71.6823 365.12C71.9202 365.135 72.1564 365.072 72.356 364.942C72.5555 364.812 72.7079 364.621 72.7903 364.397C72.8728 364.174 72.8811 363.93 72.8139 363.701C72.7468 363.473 72.6077 363.272 72.4174 363.128C72.3499 363.079 72.2768 363.038 72.1996 363.006C71.7019 362.789 71.3014 362.397 71.0741 361.904C70.8468 361.411 70.8087 360.852 70.9671 360.333C70.9927 360.254 71.0089 360.171 71.0152 360.088C71.0297 359.85 70.9672 359.614 70.8369 359.415C70.7066 359.215 70.5155 359.063 70.2919 358.98C70.0683 358.898 69.8241 358.89 69.5955 358.957C69.3668 359.024 69.1658 359.163 69.0224 359.353C68.9731 359.421 68.9319 359.494 68.8997 359.571Z" fill="#F1F1F1"/>
<path d="M33.7105 267.444C33.7105 265.45 32.0934 263.833 30.0987 263.833C28.1039 263.833 26.4868 265.45 26.4868 267.444C26.4868 269.438 28.1039 271.054 30.0987 271.054C32.0934 271.054 33.7105 269.438 33.7105 267.444Z" fill="#F1F1F1"/>
<path d="M24.0789 74.8914C24.0789 72.8974 22.4618 71.281 20.4671 71.281C18.4723 71.281 16.8552 72.8974 16.8552 74.8914C16.8552 76.8853 18.4723 78.5017 20.4671 78.5017C22.4618 78.5017 24.0789 76.8853 24.0789 74.8914Z" fill="#960018"/>
<path d="M7.22368 355.296C7.22368 353.302 5.60661 351.686 3.61184 351.686C1.61708 351.686 -2.44972e-07 353.302 -1.57814e-07 355.296C-7.06556e-08 357.29 1.61708 358.906 3.61184 358.906C5.60661 358.906 7.22368 357.29 7.22368 355.296Z" fill="#CBCBCB"/>
<path d="M171.376 369.18C171.376 354.868 159.769 343.265 145.451 343.265C131.133 343.265 119.526 354.868 119.526 369.18C119.526 383.492 131.133 395.095 145.451 395.095C159.769 395.095 171.376 383.492 171.376 369.18Z" fill="#2F2E41"/>
<path d="M165.797 373.116L165.797 380.989L179.909 380.989L179.909 373.116L165.797 373.116Z" fill="#2F2E41"/>
<path d="M165.797 357.371L165.797 365.244L179.909 365.244L179.909 357.371L165.797 357.371Z" fill="#2F2E41"/>
<path d="M182.534 374.429C182.534 370.805 181.432 367.868 180.073 367.868C178.713 367.868 177.612 370.805 177.612 374.429C177.612 378.052 178.713 380.989 180.073 380.989C181.432 380.989 182.534 378.052 182.534 374.429Z" fill="#2F2E41"/>
<path d="M182.206 358.683C182.206 355.059 181.104 352.122 179.745 352.122C178.385 352.122 177.283 355.059 177.283 358.683C177.283 362.306 178.385 365.244 179.745 365.244C181.104 365.244 182.206 362.306 182.206 358.683Z" fill="#2F2E41"/>
<path d="M134.122 341.254C128.503 335.642 122.519 332.522 120.757 334.285C118.994 336.048 122.12 342.027 127.739 347.639C133.358 353.252 139.342 356.372 141.105 354.609C142.867 352.846 139.741 346.867 134.122 341.254Z" fill="#2F2E41"/>
<path d="M142.911 390.068C141.148 388.305 135.164 391.425 129.545 397.037C123.926 402.65 120.8 408.629 122.563 410.392C124.325 412.155 130.309 409.035 135.928 403.423C141.547 397.81 144.673 391.831 142.911 390.068Z" fill="#2F2E41"/>
<path d="M150.638 370.27C150.638 365.379 146.671 361.413 141.777 361.413C136.883 361.413 132.916 365.379 132.916 370.27C132.916 375.162 136.883 379.127 141.777 379.127C146.671 379.127 150.638 375.162 150.638 370.27Z" fill="white"/>
<path d="M144.731 370.27C144.731 368.64 143.408 367.318 141.777 367.318C140.146 367.318 138.823 368.64 138.823 370.27C138.823 371.901 140.146 373.223 141.777 373.223C143.408 373.223 144.731 371.901 144.731 370.27Z" fill="#3F3D56"/>
<path d="M158.164 363.239C159.668 362.966 161.218 363.3 162.475 364.17C163.732 365.039 164.592 366.372 164.865 367.875C165.139 369.378 164.804 370.928 163.935 372.184C163.065 373.44 161.732 374.3 160.228 374.573L160.217 374.575C157.086 375.142 155.977 372.722 155.411 369.591C154.844 366.461 155.033 363.806 158.164 363.239Z" fill="white"/>
<path d="M172.66 343.769C172.661 344.352 172.893 344.912 173.306 345.324C173.718 345.736 174.278 345.968 174.861 345.969L179.459 345.969C180.042 345.968 180.602 345.736 181.014 345.324C181.427 344.912 181.659 344.352 181.66 343.769L181.66 308.37C181.659 307.786 181.427 307.227 181.014 306.815C180.602 306.402 180.042 306.17 179.459 306.169L174.861 306.169C174.278 306.17 173.718 306.402 173.306 306.815C172.893 307.227 172.661 307.786 172.66 308.37L172.66 343.769Z" fill="#E5E5E5"/>
<path d="M169.598 323.411C169.472 323.631 169.438 323.891 169.503 324.135C169.569 324.38 169.729 324.588 169.948 324.715L172.227 326.03L169.678 327.319C169.453 327.434 169.281 327.633 169.202 327.873C169.123 328.114 169.143 328.376 169.258 328.601C169.372 328.827 169.571 328.998 169.812 329.077C170.052 329.156 170.314 329.136 170.54 329.022L172.524 328.019L172.524 328.386L181.796 328.386L181.796 323.48L172.524 323.48L172.524 323.998L170.902 323.062C170.683 322.936 170.422 322.901 170.178 322.967C169.933 323.032 169.725 323.192 169.598 323.411Z" fill="#960018"/>
<path d="M128.446 369.847C128.441 374.452 127.742 379.029 126.371 383.425C126.272 383.731 126.08 383.997 125.82 384.186C125.561 384.376 125.249 384.478 124.928 384.48L114.375 384.48C113.976 384.479 113.593 384.321 113.311 384.038C113.029 383.756 112.871 383.374 112.87 382.975L112.87 356.499C112.871 356.101 113.029 355.718 113.311 355.436C113.593 355.154 113.976 354.995 114.375 354.995L124.922 354.995C125.245 354.995 125.561 355.099 125.821 355.292C126.081 355.484 126.272 355.756 126.366 356.065C127.731 360.533 128.432 365.176 128.446 369.847Z" fill="#960018"/>
<path opacity="0.2" d="M114.375 355.296L116.139 355.296L121.165 369.623C121.258 369.891 121.253 370.182 121.153 370.447L115.994 384.179L114.375 384.179C114.056 384.178 113.75 384.051 113.525 383.825C113.299 383.6 113.172 383.294 113.171 382.975L113.171 356.499C113.172 356.18 113.299 355.875 113.525 355.649C113.75 355.424 114.056 355.297 114.375 355.296Z" fill="black"/>
<path d="M119.126 370.024C119.126 370.204 119.093 370.384 119.03 370.553L111.322 391.072C111.213 391.362 111.017 391.612 110.761 391.786C110.505 391.961 110.201 392.052 109.891 392.047C109.581 392.043 109.28 391.943 109.029 391.761C108.778 391.579 108.589 391.323 108.489 391.03L101.881 371.724C101.776 371.412 101.774 371.074 101.877 370.761L109.063 349.213C109.162 348.916 109.352 348.656 109.606 348.472C109.86 348.288 110.165 348.187 110.479 348.185C110.793 348.182 111.1 348.278 111.357 348.459C111.613 348.639 111.807 348.895 111.911 349.191L119.041 369.526C119.097 369.686 119.126 369.855 119.126 370.024Z" fill="#960018"/>
<path d="M118.589 388.692L118.589 389.293L109.86 389.293L109.86 370.941L110.462 370.941L110.462 388.692L118.589 388.692Z" fill="#3F3D56"/>
<path d="M120.395 388.993C120.395 388.328 119.856 387.789 119.191 387.789C118.526 387.789 117.987 388.328 117.987 388.993C117.987 389.657 118.526 390.196 119.191 390.196C119.856 390.196 120.395 389.657 120.395 388.993Z" fill="#3F3D56"/>
<path d="M171.376 219.35C171.376 205.038 159.769 193.435 145.451 193.435C131.133 193.435 119.526 205.038 119.526 219.35C119.526 233.662 131.133 245.265 145.451 245.265C159.769 245.265 171.376 233.662 171.376 219.35Z" fill="#2F2E41"/>
<path d="M165.797 223.287L165.797 231.159L179.909 231.159L179.909 223.287L165.797 223.287Z" fill="#2F2E41"/>
<path d="M165.797 207.541L165.797 215.414L179.909 215.414L179.909 207.541L165.797 207.541Z" fill="#2F2E41"/>
<path d="M182.534 224.599C182.534 220.975 181.432 218.038 180.073 218.038C178.713 218.038 177.612 220.975 177.612 224.599C177.612 228.222 178.713 231.159 180.073 231.159C181.432 231.159 182.534 228.222 182.534 224.599Z" fill="#2F2E41"/>
<path d="M182.206 208.853C182.206 205.23 181.104 202.292 179.745 202.292C178.385 202.292 177.283 205.23 177.283 208.853C177.283 212.476 178.385 215.414 179.745 215.414C181.104 215.414 182.206 212.476 182.206 208.853Z" fill="#2F2E41"/>
<path d="M134.122 191.424C128.503 185.812 122.519 182.692 120.757 184.455C118.994 186.218 122.12 192.197 127.739 197.81C133.358 203.422 139.342 206.542 141.105 204.779C142.867 203.016 139.741 197.037 134.122 191.424Z" fill="#2F2E41"/>
<path d="M158.187 242.481C151.662 237.952 145.22 235.941 143.798 237.988C142.375 240.036 146.512 245.367 153.036 249.895C159.561 254.424 166.003 256.435 167.425 254.388C168.848 252.34 164.711 247.01 158.187 242.481Z" fill="#2F2E41"/>
<path d="M150.638 220.44C150.638 215.549 146.671 211.583 141.777 211.583C136.883 211.583 132.916 215.549 132.916 220.44C132.916 225.332 136.883 229.297 141.777 229.297C146.671 229.297 150.638 225.332 150.638 220.44Z" fill="white"/>
<path d="M141.721 217.432C141.721 215.801 140.398 214.479 138.767 214.479C137.136 214.479 135.814 215.801 135.814 217.432C135.814 219.062 137.136 220.384 138.767 220.384C140.398 220.384 141.721 219.062 141.721 217.432Z" fill="#3F3D56"/>
<path d="M158.164 209.822C161.295 208.953 164.295 212.118 164.865 216.891C165.435 221.663 163.359 226.237 160.228 227.106L160.217 227.109C157.086 227.973 155.977 224.282 155.411 219.508C154.844 214.735 155.033 210.686 158.164 209.822Z" fill="white"/>
<path d="M130.193 228.418C131.907 232.692 132.966 237.199 133.335 241.789C133.357 242.109 133.278 242.428 133.108 242.701C132.938 242.973 132.687 243.185 132.389 243.306L122.599 247.241C122.228 247.389 121.814 247.385 121.447 247.228C121.08 247.072 120.79 246.776 120.641 246.406L110.759 221.842C110.611 221.472 110.616 221.058 110.772 220.691C110.929 220.324 111.224 220.034 111.594 219.885L121.379 215.952C121.68 215.831 122.011 215.81 122.324 215.892C122.638 215.974 122.916 216.154 123.119 216.406C126.053 220.042 128.437 224.089 130.193 228.418Z" fill="#960018"/>
<path opacity="0.2" d="M111.707 220.164L113.343 219.506L123.354 230.925C123.539 231.139 123.644 231.411 123.65 231.694L123.989 246.358L122.486 246.962C122.19 247.08 121.859 247.076 121.565 246.951C121.272 246.826 121.04 246.59 120.92 246.294L111.039 221.73C110.921 221.433 110.924 221.102 111.05 220.809C111.175 220.516 111.411 220.284 111.707 220.164Z" fill="black"/>
<path d="M121.611 232.057C121.678 232.225 121.715 232.403 121.72 232.583L122.226 254.496C122.233 254.806 122.145 255.11 121.972 255.368C121.8 255.625 121.552 255.823 121.262 255.935C120.973 256.046 120.656 256.065 120.356 255.99C120.055 255.915 119.785 255.748 119.582 255.514L106.246 240.065C106.032 239.815 105.904 239.502 105.883 239.173L104.508 216.501C104.489 216.188 104.568 215.877 104.735 215.611C104.902 215.345 105.148 215.138 105.438 215.019C105.728 214.9 106.049 214.874 106.354 214.946C106.66 215.018 106.935 215.183 107.142 215.419L121.347 231.627C121.459 231.755 121.548 231.9 121.611 232.057Z" fill="#960018"/>
<path d="M128.08 249.577L128.305 250.136L120.206 253.39L113.356 236.363L113.915 236.138L120.54 252.608L128.08 249.577Z" fill="#3F3D56"/>
<path d="M129.955 249.632C129.955 248.967 129.416 248.429 128.751 248.429C128.086 248.429 127.547 248.967 127.547 249.632C127.547 250.297 128.086 250.835 128.751 250.835C129.416 250.835 129.955 250.297 129.955 249.632Z" fill="#3F3D56"/>
<path d="M84.1974 120.693C81.7587 124.599 78.7444 128.115 75.2563 131.123C75.0111 131.33 74.7067 131.454 74.3865 131.478C74.0663 131.502 73.7468 131.424 73.4737 131.255L64.5154 125.68C64.1769 125.469 63.9361 125.132 63.8457 124.743C63.7553 124.355 63.8228 123.947 64.0332 123.608L78.0327 101.132C78.244 100.794 78.5809 100.553 78.9695 100.463C79.3581 100.372 79.7667 100.44 80.1057 100.65L89.0587 106.222C89.3337 106.393 89.5463 106.648 89.6652 106.949C89.7841 107.25 89.8029 107.581 89.7189 107.894C88.516 112.408 86.6556 116.72 84.1974 120.693Z" fill="#960018"/>
<path opacity="0.2" d="M79.9466 100.906L81.4438 101.838L78.1352 116.656C78.0721 116.932 77.9143 117.177 77.6891 117.349L66.0491 126.28L64.6744 125.424C64.4041 125.255 64.2118 124.986 64.1395 124.675C64.0673 124.365 64.1209 124.038 64.2888 123.767L78.2882 101.291C78.4576 101.021 78.7271 100.829 79.0378 100.756C79.3486 100.684 79.6753 100.738 79.9466 100.906Z" fill="black"/>
<path d="M76.1917 115.918C76.0964 116.072 75.9742 116.206 75.8311 116.317L58.4377 129.663C58.1918 129.852 57.8935 129.96 57.5838 129.973C57.274 129.986 56.9678 129.903 56.7071 129.735C56.4463 129.567 56.2437 129.323 56.127 129.036C56.0103 128.749 55.9851 128.433 56.055 128.131L60.6543 108.251C60.7296 107.93 60.9069 107.642 61.1598 107.431L78.6535 92.9356C78.8952 92.7354 79.1934 92.6158 79.5065 92.5934C79.8195 92.571 80.1318 92.647 80.3995 92.8107C80.6672 92.9745 80.877 93.2178 80.9995 93.5067C81.122 93.7956 81.1511 94.1155 81.0827 94.4217L76.3831 115.451C76.3461 115.617 76.2814 115.775 76.1917 115.918Z" fill="#960018"/>
<path d="M65.8655 131.482L65.5471 131.993L58.1374 127.381L67.8418 111.801L68.3523 112.119L58.9663 127.188L65.8655 131.482Z" fill="#3F3D56"/>
<path d="M67.4212 132.055C67.4212 131.391 66.8822 130.852 66.2173 130.852C65.5523 130.852 65.0133 131.391 65.0133 132.055C65.0133 132.72 65.5523 133.259 66.2173 133.259C66.8822 133.259 67.4212 132.72 67.4212 132.055Z" fill="#3F3D56"/>
<path d="M141.88 57.9986C141.88 43.6863 130.272 32.0839 115.954 32.0839C101.636 32.0839 90.0288 43.6863 90.0288 57.9986C90.0288 72.3109 101.636 83.9133 115.954 83.9133C130.272 83.9133 141.88 72.3109 141.88 57.9986Z" fill="#2F2E41"/>
<path d="M129.397 40.0331L133.504 46.7507L145.545 39.3951L141.438 32.6775L129.397 40.0331Z" fill="#2F2E41"/>
<path d="M137.611 53.4684L141.718 60.186L153.759 52.8304L149.652 46.1128L137.611 53.4684Z" fill="#2F2E41"/>
<path d="M147.1 36.9071C145.21 33.8154 142.737 31.8834 141.578 32.592C140.418 33.3006 141.01 36.3813 142.9 39.473C144.79 42.5647 147.263 44.4966 148.423 43.7881C149.583 43.0795 148.991 39.9988 147.1 36.9071Z" fill="#2F2E41"/>
<path d="M155.035 50.5133C153.144 47.4216 150.672 45.4896 149.512 46.1982C148.352 46.9068 148.944 49.9875 150.834 53.0792C152.725 56.1709 155.197 58.1028 156.357 57.3943C157.517 56.6857 156.925 53.605 155.035 50.5133Z" fill="#2F2E41"/>
<path d="M111.608 72.5699C109.845 70.8067 103.861 73.927 98.2425 79.5393C92.6236 85.1516 89.4974 91.1306 91.26 92.8938C93.0226 94.6571 99.0065 91.5368 104.625 85.9245C110.244 80.3122 113.37 74.3332 111.608 72.5699Z" fill="#2F2E41"/>
<path d="M137.929 22.9608C136.506 20.9134 130.064 22.9248 123.54 27.4534C117.015 31.982 112.879 37.313 114.301 39.3604C115.723 41.4079 122.165 39.3965 128.69 34.8678C135.215 30.3392 139.351 25.0083 137.929 22.9608Z" fill="#2F2E41"/>
<path d="M117.529 65.9343C117.529 61.0428 113.562 57.0774 108.668 57.0774C103.775 57.0774 99.8078 61.0428 99.8078 65.9343C99.8078 70.8259 103.775 74.7913 108.668 74.7913C113.562 74.7913 117.529 70.8259 117.529 65.9343Z" fill="white"/>
<path d="M108.612 68.9429C108.612 67.3124 107.29 65.9906 105.659 65.9906C104.027 65.9906 102.705 67.3124 102.705 68.9429C102.705 70.5735 104.027 71.8953 105.659 71.8953C107.29 71.8953 108.612 70.5735 108.612 68.9429Z" fill="#3F3D56"/>
<path d="M123.449 77.3394C126.202 79.0189 129.926 76.7812 131.767 72.3413C133.608 67.9015 132.869 62.9407 130.116 61.2612L130.106 61.2552C127.352 59.5801 125.291 62.8337 123.452 67.2752C121.614 71.7168 120.694 75.6643 123.449 77.3394Z" fill="white"/>
<path d="M83.4017 66.6941C74.0789 64.3801 68.5927 54.1658 71.1478 43.8798C73.7029 33.5938 83.3319 27.1311 92.6547 29.4451C101.977 31.7591 102.008 39.4362 99.4524 49.7222C96.8972 60.0082 92.7245 69.0081 83.4017 66.6941Z" fill="#E6E6E6"/>
<path d="M183 -23.3983L183 463.398C183 463.558 182.937 463.711 182.824 463.824C182.711 463.937 182.558 464 182.398 464C182.238 464 182.085 463.937 181.972 463.824C181.859 463.711 181.796 463.558 181.796 463.398L181.796 -23.3983C181.796 -23.5579 181.859 -23.7109 181.972 -23.8238C182.085 -23.9366 182.238 -24 182.398 -24C182.558 -24 182.711 -23.9366 182.824 -23.8238C182.937 -23.7109 183 -23.5579 183 -23.3983Z" fill="#CBCBCB"/>
</g>
<defs>
<clipPath id="clip0_156_428">
<rect width="488" height="183" fill="white" transform="translate(0 464) rotate(-90)"/>
</clipPath>
</defs>
</svg>
